<svg xmlns="http://www.w3.org/2000/svg" height="44.274" width="44.274" xmlns:v="https://vecta.io/nano"><path d="m44.274 22.137q0 1.026-.092 2.028-.07.793-.2 1.567a22.153 22.153 0 1 1 .291-3.594z" fill="#fff"/><g fill="#4e73df"><path d="M10.239 21.772v14.374h2.835V21.772zm-5.552 7.226v7.147h2.835v-7.147zm11.104-16.18v23.327h2.835V12.818zm6.18 21.524c7.185-1.901 13.262-7.253 15.64-14.808v-.015c.586-1.871.926-3.814 1.013-5.775a2.72 2.72 0 0 0-1.569-2.581c-1.78-.824-3.662-1.414-5.594-1.754a22.3 22.3 0 0 0-9.49.404v1.126a21.13 21.13 0 0 1 9.301-.457c.469.064.918.174 1.368.283 1.361.329 2.685.794 3.953 1.387.597.276.968.884.945 1.542a21.62 21.62 0 0 1-.96 5.495c-2.26 7.189-7.956 12.155-14.604 14.014z"/><path d="M26.567 8.158c-1.655.076-3.277.333-4.838.741l-.711.189v3.114l1.206-.336c2.801-.775 5.805-.975 8.886-.438l.019.004.019.004a12.66 12.66 0 0 1 1.27.265c1.3.314 2.563.76 3.772 1.327h.004a.68.68 0 0 1 .393.639 20.65 20.65 0 0 1-.918 5.25c-2.158 6.871-7.589 11.599-13.95 13.38l-.695.197v3.095l1.198-.317c7.483-1.98 13.826-7.567 16.305-15.443l.026-.083.011-.102-.034.166c.613-1.951.967-3.974 1.054-6.017v-.004a3.69 3.69 0 0 0-2.12-3.485v-.004h-.004c-1.856-.861-3.816-1.475-5.832-1.826h-.004a23.19 23.19 0 0 0-5.057-.317zm4.834 1.387l.038.008zm-10.382 9.483l.295.325a.52.52 0 0 0 .283.181c.236.05.478-.056.603-.263s.104-.47-.051-.656l-.423-.491.888-.552.416.68c.163.262.505.346.771.189.262-.163.346-.505.189-.771l-.378-.616.93-.45.189.48c.067.171.212.299.389.344.203.046.414-.023.551-.179s.178-.375.106-.57l-.197-.499 1.089-.363.163.559c.057.193.213.341.408.389.094.023.193.019.283-.008.299-.088.471-.4.386-.699l-.155-.529 1.126-.238c.302-.053.506-.34.457-.646a.55.55 0 0 0-.627-.457l-1.259.272-.155-.544c-.189-.76-1.33-.423-1.077.317l.151.518-1.179.397-.215-.556c-.114-.287-.437-.43-.726-.321a.56.56 0 0 0-.321.729l.227.571-1.107.533-.212-.344c-.393-.654-1.376-.068-.983.59l.193.314-1.024.643z"/></g></svg>